{"asset":{"generator":"3D Builder","version":"2.0"},"scene":0,"scenes":[{"nodes":[0]}],"nodes":[{"mesh":0,"matrix":[1,0,0,0,0,-1.1920928955078125E-7,-0.99999988079071045,0,0,0.99999988079071045,-1.1920928955078125E-7,0,1.1354684970044104E-9,-0.0016501452773809433,-8.2047779681460042E-10,1]}],"meshes":[{"primitives":[{"attributes":{"POSITION":0,"TEXCOORD_0":1},"mode":4,"indices":2,"material":0}]}],"materials":[{"pbrMetallicRoughness":{"baseColorFactor":[1,1,1,1],"metallicFactor":1,"roughnessFactor":1,"baseColorTexture":{"index":0,"texCoord":0},"metallicRoughnessTexture":{"index":1,"texCoord":0}},"alphaMode":"OPAQUE"}],"textures":[{"source":0,"sampler":0},{"source":1,"sampler":0}],"images":[{"uri":"938836023_256x256_6195987693227547908.png"},{"uri":"163369918_32x32_17319628118832143767.png"}],"samplers":[{"magFilter":9729,"wrapS":10497,"wrapT":10497}],"accessors":[{"bufferView":0,"byteOffset":0,"count":140,"componentType":5126,"type":"VEC3","min":[-0.0068036029115319252,-0.00059389637317508459,0.001650145510211587],"max":[0.0068036005832254887,0.00059389433590695262,0.015257352031767368]},{"bufferView":1,"byteOffset":0,"count":140,"componentType":5126,"type":"VEC2"},{"bufferView":2,"byteOffset":0,"count":708,"componentType":5125,"type":"SCALAR"}],"bufferViews":[{"buffer":0,"byteOffset":0,"byteLength":1680,"byteStride":12,"target":34962},{"buffer":0,"byteOffset":1680,"byteLength":1120,"byteStride":8,"target":34962},{"buffer":0,"byteOffset":2800,"byteLength":2832,"target":34963}],"buffers":[{"byteLength":5632,"uri":"Coin.bin"}]}